<svg width="8" height="16" viewBox="0 0 8 16" fill="none" xmlns="http://www.w3.org/2000/svg">
<path d="M1.23975 8.00168L7.8134 14.4345C7.93837 14.5568 8.00028 14.7035 7.99915 14.8747C7.99801 15.0459 7.93439 15.1929 7.80829 15.3158C7.68218 15.4386 7.53193 15.5 7.35755 15.5C7.18316 15.5 7.03291 15.4386 6.90681 15.3158L0.396208 8.9496C0.258743 8.81454 0.158199 8.66448 0.0945787 8.4994C0.0315262 8.33322 0 8.16731 0 8.00168C0 7.83606 0.0315262 7.67043 0.0945787 7.5048C0.158199 7.33917 0.258743 7.1891 0.396208 7.0546L6.90595 0.68178C7.03149 0.558948 7.18259 0.498366 7.35925 0.500033C7.53534 0.501701 7.68644 0.563951 7.81255 0.686783C7.93752 0.809615 8 0.956624 8 1.12781C8 1.299 7.93752 1.44601 7.81255 1.56884L1.23975 8.00168Z" fill="black"/>
</svg>
