<svg width="25" height="24" viewBox="0 0 25 24" fill="none" xmlns="http://www.w3.org/2000/svg">
<path d="M9.50156 6.435L9.50306 5.247C9.50386 4.45187 9.82028 3.68958 10.3828 3.12762C10.9453 2.56566 11.7079 2.25 12.5031 2.25C14.1561 2.25 15.4956 3.5895 15.4956 5.2425V6.432C17.9113 7.15193 19.9876 8.71654 21.3455 10.8403C22.7033 12.964 23.2523 15.5052 22.8921 18H2.10656C1.74697 15.506 2.29585 12.9659 3.65309 10.8429C5.01033 8.71985 7.08548 7.15545 9.50006 6.435H9.50156ZM2.75006 19.5H22.2501C22.449 19.5 22.6397 19.579 22.7804 19.7197C22.921 19.8603 23.0001 20.0511 23.0001 20.25C23.0001 20.4489 22.921 20.6397 22.7804 20.7803C22.6397 20.921 22.449 21 22.2501 21H2.75006C2.55115 21 2.36039 20.921 2.21973 20.7803C2.07908 20.6397 2.00006 20.4489 2.00006 20.25C2.00006 20.0511 2.07908 19.8603 2.21973 19.7197C2.36039 19.579 2.55115 19.5 2.75006 19.5ZM3.50006 16.5H21.5001C21.5001 15.3181 21.2673 14.1478 20.815 13.0558C20.3627 11.9639 19.6998 10.9718 18.864 10.136C18.0283 9.30031 17.0361 8.63738 15.9442 8.18508C14.8523 7.73279 13.682 7.5 12.5001 7.5C11.3182 7.5 10.1478 7.73279 9.05591 8.18508C7.96398 8.63738 6.97183 9.30031 6.1361 10.136C5.30037 10.9718 4.63744 11.9639 4.18515 13.0558C3.73286 14.1478 3.50006 15.3181 3.50006 16.5ZM13.9956 6V5.2425C13.9956 4.84666 13.8383 4.46704 13.5584 4.18714C13.2785 3.90725 12.8989 3.75 12.5031 3.75C12.1055 3.75 11.7242 3.90783 11.4429 4.18881C11.1617 4.46979 11.0035 4.85094 11.0031 5.2485V6H13.9956Z" fill="#4D5E70"/>
</svg>
