<svg width="12" height="6" viewBox="0 0 12 6" fill="none" xmlns="http://www.w3.org/2000/svg">
<path d="M5.75016 5.07019L10.681 0.13995C10.7748 0.0462229 10.8872 -0.000214338 11.0185 0.00063777C11.1497 0.0014894 11.2624 0.0492051 11.3565 0.143784C11.4507 0.238363 11.4977 0.351048 11.4977 0.481839C11.4977 0.612631 11.4507 0.725316 11.3565 0.819894L6.47675 5.70284C6.37323 5.80594 6.2582 5.88135 6.13167 5.92907C6.00429 5.97636 5.87712 6 5.75016 6C5.6232 6 5.49625 5.97636 5.36929 5.92907C5.24233 5.88135 5.1273 5.80594 5.0242 5.70284L0.139338 0.820533C0.0451849 0.726381 -0.00125242 0.613057 2.5676e-05 0.480561C0.00130377 0.348492 0.0490192 0.235167 0.143172 0.140589C0.237325 0.0468619 0.35001 -1.19209e-06 0.481227 -1.19209e-06C0.612445 -1.19209e-06 0.725129 0.0468619 0.819282 0.140589L5.75016 5.07019Z" fill="white"/>
</svg>
