<svg width="20" height="18" viewBox="0 0 20 18" fill="none" xmlns="http://www.w3.org/2000/svg">
<path d="M9.85318 6.23684L12.5909 8.73158C12.5909 8.69211 12.5909 8.64474 12.5909 8.60526C12.5909 7.97712 12.3179 7.3747 11.832 6.93054C11.3462 6.48637 10.6872 6.23684 10 6.23684C9.94818 6.23684 9.905 6.23684 9.85318 6.23684ZM6.13955 6.86842L7.47818 8.09211C7.435 8.25789 7.40909 8.42368 7.40909 8.60526C7.40909 9.23341 7.68206 9.83582 8.16795 10.28C8.65384 10.7242 9.31285 10.9737 10 10.9737C10.19 10.9737 10.38 10.95 10.5614 10.9105L11.9 12.1342C11.3214 12.3947 10.6823 12.5526 10 12.5526C8.85475 12.5526 7.7564 12.1367 6.94658 11.3965C6.13677 10.6562 5.68182 9.65217 5.68182 8.60526C5.68182 7.98158 5.85455 7.39737 6.13955 6.86842ZM1.36364 2.50263L3.33273 4.30263L3.72136 4.65789C2.29636 5.68421 1.17364 7.02632 0.5 8.60526C1.99409 12.0711 5.68182 14.5263 10 14.5263C11.3386 14.5263 12.6168 14.2895 13.7827 13.8632L14.1541 14.1947L16.6759 16.5L17.7727 15.4974L2.46045 1.5L1.36364 2.50263ZM10 4.65789C11.1453 4.65789 12.2436 5.07378 13.0534 5.81405C13.8632 6.55433 14.3182 7.55836 14.3182 8.60526C14.3182 9.11053 14.2059 9.6 14.0073 10.0421L16.5377 12.3553C17.8332 11.3684 18.8695 10.0737 19.5 8.60526C18.0059 5.13947 14.3182 2.68421 10 2.68421C8.79091 2.68421 7.63364 2.88158 6.54545 3.23684L8.41955 4.93421C8.91182 4.76053 9.43864 4.65789 10 4.65789Z" fill="#A1A1A1"/>
</svg>
