<svg width="24" height="24" viewBox="0 0 24 24" fill="none" xmlns="http://www.w3.org/2000/svg">
<path fill-rule="evenodd" clip-rule="evenodd" d="M10.772 2.68799C11.1231 2.41488 11.5552 2.2666 12 2.2666C12.4448 2.2666 12.8769 2.41488 13.228 2.68799L21.612 9.20799C22.365 9.79499 21.949 11 20.997 11H20V19C20 19.5304 19.7893 20.0391 19.4142 20.4142C19.0391 20.7893 18.5304 21 18 21H6C5.46957 21 4.96086 20.7893 4.58579 20.4142C4.21071 20.0391 4 19.5304 4 19V11H3.003C2.05 11 1.636 9.79399 2.388 9.20899L10.772 2.68799ZM5.625 9.22499C5.854 9.40999 6 9.69299 6 10.01V19H18V10.01C18 9.69299 18.146 9.40999 18.375 9.22499L12 4.26699L5.625 9.22499Z" fill="#4D4D4D"/>
</svg>
