<svg width="24" height="24" viewBox="0 0 24 24" fill="none" xmlns="http://www.w3.org/2000/svg">
<path d="M16.9309 9.12358H16.1091V7.47994C16.1091 5.21172 14.2682 3.37085 12 3.37085C9.73175 3.37085 7.89087 5.21172 7.89087 7.47994V9.12358H7.06905C6.16505 9.12358 5.42542 9.86322 5.42542 10.7672V18.9854C5.42542 19.8894 6.16505 20.629 7.06905 20.629H16.9309C17.8349 20.629 18.5745 19.8894 18.5745 18.9854V10.7672C18.5745 9.86322 17.8349 9.12358 16.9309 9.12358ZM12 16.52C11.096 16.52 10.3563 15.7803 10.3563 14.8763C10.3563 13.9723 11.096 13.2327 12 13.2327C12.904 13.2327 13.6436 13.9723 13.6436 14.8763C13.6436 15.7803 12.904 16.52 12 16.52ZM14.5476 9.12358H9.45233V7.47994C9.45233 6.07463 10.5947 4.93231 12 4.93231C13.4053 4.93231 14.5476 6.07463 14.5476 7.47994V9.12358Z" fill="#A1A1A1"/>
</svg>
