<svg width="13" height="13" viewBox="0 0 13 13" fill="none" xmlns="http://www.w3.org/2000/svg">
<path d="M6.5 13C10.0897 13 13 10.0897 13 6.5C13 2.91031 10.0897 0 6.5 0C2.91031 0 0 2.91031 0 6.5C0 10.0897 2.91031 13 6.5 13ZM5.39656 3.85344C5.34818 3.80747 5.30949 3.75228 5.28277 3.69112C5.25605 3.62997 5.24184 3.56408 5.24099 3.49735C5.24014 3.43062 5.25265 3.36439 5.27779 3.30257C5.30294 3.24075 5.3402 3.18459 5.38739 3.13739C5.43459 3.0902 5.49075 3.05294 5.55257 3.02779C5.61439 3.00265 5.68062 2.99014 5.74735 2.99099C5.81408 2.99184 5.87997 3.00605 5.94112 3.03277C6.00228 3.05949 6.05747 3.09818 6.10344 3.14656L9.10344 6.14656C9.19713 6.24032 9.24977 6.36745 9.24977 6.5C9.24977 6.63255 9.19713 6.75968 9.10344 6.85344L6.10344 9.85344C6.00891 9.94325 5.88303 9.99258 5.75265 9.99091C5.62227 9.98924 5.4977 9.9367 5.4055 9.8445C5.3133 9.7523 5.26076 9.62773 5.25909 9.49735C5.25742 9.36697 5.30675 9.24109 5.39656 9.14656L8.04281 6.5L5.39656 3.85344Z" fill="#EF505F"/>
</svg>
