<svg width="16" height="13" viewBox="0 0 16 13" fill="none" xmlns="http://www.w3.org/2000/svg">
<path d="M3.30364 10.5427C3.23653 10.5427 3.18212 10.4893 3.18212 10.4234C3.18212 10.3576 3.23653 10.3042 3.30364 10.3042C3.37076 10.3042 3.42516 10.3576 3.42516 10.4234C3.42516 10.4893 3.37076 10.5427 3.30364 10.5427Z" fill="black"/>
<path d="M2.29026 5.292C2.15941 5.2055 2.07287 5.05825 2.07287 4.89175V3.9305C2.07287 3.666 2.29104 3.4575 2.55818 3.4665L8.38865 3.673C8.65606 3.682 8.87448 3.90625 8.87448 4.171V4.89175C8.87448 5.15625 8.6558 5.37275 8.38865 5.37275H8.08783L7.81887 5.63525C7.80177 5.65275 7.32579 6.15025 7.32579 7.18525C7.32579 7.65175 7.77301 8.03125 8.32232 8.03125H10.2745C10.447 7.84825 10.7489 6.92075 10.7489 5.3755C10.7489 3.7895 10.1283 2.97675 10.1221 2.96875L9.99643 2.8075L9.8591 2.8635C9.77489 2.9035 9.67513 2.911 9.58341 2.86925C9.42069 2.794 9.35021 2.6045 9.42613 2.444C9.45403 2.38878 9.49843 2.3429 9.55361 2.31225L10.0519 2.10375C10.0915 1.796 10.3146 1.55025 10.6136 1.503C10.673 1.4935 10.7427 1.45075 10.7478 1.43175C10.8826 0.93775 11.2262 0.6875 11.7682 0.6875H12.5157L12.5212 1.06875H12.787V1.307C12.9801 1.307 13.1368 1.5735 13.1368 1.90275C13.1368 2.23125 12.9803 2.4985 12.787 2.4985V2.73675H12.5214V3.118H11.9991C12.6313 4.0145 13.6768 5.6535 13.6768 6.69425C13.6766 6.73908 13.6727 6.78367 13.6649 6.828C14.557 6.94375 15.3711 7.46725 15.8038 8.22625C15.8888 8.375 15.8927 8.54175 15.8147 8.6835C15.6927 8.90575 15.4471 8.9775 15.0659 9.01825C15.1744 9.25903 15.2308 9.51868 15.2315 9.78125C15.2315 10.834 14.3616 11.6875 13.2882 11.6875C12.2978 11.6875 11.4822 10.9605 11.3619 10.021H10.7678C10.7056 10.021 10.6546 10.0455 10.5543 10.0968C10.4133 10.1685 10.22 10.2668 9.94046 10.2668H5.17984C4.9609 11.084 4.20508 11.6875 3.30363 11.6875C2.40193 11.6875 1.64637 11.084 1.42742 10.2665H0.323877V9.8855C0.323877 7.4645 1.71426 5.855 2.29026 5.292ZM8.60397 4.14925C8.61252 4.14975 8.61978 4.15375 8.62833 4.1545C8.61926 4.0255 8.51095 3.91575 8.38036 3.91075L2.54108 3.70475C2.41463 3.70475 2.31591 3.804 2.31591 3.9305V3.943L8.60397 4.14925ZM13.2882 10.7345C13.825 10.7345 14.2598 10.3075 14.2598 9.78125C14.2598 9.51975 14.1505 9.28575 13.9761 9.11425C13.7706 9.142 13.5861 9.18075 13.4768 9.23875C13.3483 9.307 13.2335 9.39125 13.112 9.4805C12.9982 9.564 12.8777 9.65075 12.7417 9.73C12.7509 9.74792 12.7553 9.76781 12.7543 9.7878C12.7534 9.80779 12.7472 9.82722 12.7364 9.84427C12.7255 9.86132 12.7103 9.87543 12.6923 9.88526C12.6742 9.8951 12.6539 9.90034 12.6331 9.9005C12.588 9.9005 12.5505 9.8755 12.5295 9.84C12.4673 9.868 12.4009 9.89342 12.3302 9.91625C12.3976 10.378 12.7987 10.7345 13.2882 10.7345ZM3.30363 10.7345C3.6581 10.7345 3.96281 10.5452 4.13149 10.2668H3.88145C3.87634 10.2865 3.86628 10.3048 3.85217 10.32C3.84105 10.3311 3.82773 10.34 3.81299 10.346C3.79826 10.352 3.78241 10.3551 3.7664 10.3551C3.75039 10.3551 3.73455 10.352 3.71981 10.346C3.70508 10.34 3.69176 10.3311 3.68064 10.32C3.66615 10.3051 3.65604 10.2867 3.65136 10.2668H2.95539C2.95028 10.2865 2.94023 10.3048 2.92611 10.32C2.915 10.3311 2.90167 10.34 2.88694 10.346C2.8722 10.352 2.85636 10.3551 2.84035 10.3551C2.82434 10.3551 2.80849 10.352 2.79376 10.346C2.77902 10.34 2.7657 10.3311 2.75458 10.32C2.74009 10.3051 2.72998 10.2867 2.7253 10.2668H2.47552C2.6442 10.5452 2.94891 10.7345 3.30363 10.7345ZM9.94046 9.8855C10.3014 9.8855 10.4405 9.63975 10.7678 9.63975H11.6008C12.5062 9.63975 12.7567 9.1885 13.2915 8.9035C13.925 8.5665 15.6712 8.7745 15.4647 8.41275C15.0472 7.68025 14.1844 7.1855 13.2915 7.1855C13.2216 7.1855 13.1529 7.19025 13.0845 7.19625L13.085 7.1955C13.085 7.1955 13.2879 6.90925 13.2879 6.6945C13.2879 5.37575 11.2389 2.737 11.2389 2.737H12.1325V1.069H11.7682C11.5684 1.069 11.2448 1.08475 11.123 1.53075C11.0671 1.7355 10.8585 1.838 10.7152 1.87125C10.8564 1.9465 10.9531 2.09125 10.9531 2.26C10.9531 2.5055 10.7504 2.705 10.5001 2.705C10.4768 2.705 10.4545 2.70175 10.4322 2.698V2.73725H10.4307C10.4307 2.73725 11.1378 3.64225 11.1378 5.376C11.1378 7.05475 10.7763 8.413 10.3302 8.413H8.32258C7.55665 8.413 6.93738 7.8645 6.93738 7.18575C6.93738 6.039 7.46804 5.446 7.53748 5.37325H2.77142C2.67141 5.456 0.712542 7.11525 0.712542 9.886H9.94046V9.8855Z" fill="#686868"/>
<path d="M4.19087 5.86904C4.52641 5.83929 4.87751 5.84729 5.21357 5.93754C5.54808 6.02804 5.86549 6.19404 6.11994 6.43004C6.37153 6.66679 6.56483 6.96529 6.66148 7.29029C6.7594 7.61276 6.78371 7.95188 6.73273 8.28429C6.67929 8.6084 6.5645 8.92026 6.39407 9.20429C6.63893 8.60579 6.70837 7.93304 6.48425 7.34954C6.26763 6.76579 5.75692 6.31854 5.14983 6.16729C4.84823 6.08204 4.5303 6.07254 4.20952 6.09354C3.88978 6.11379 3.57289 6.17579 3.26274 6.26429C2.95258 6.35279 2.6515 6.47754 2.36337 6.62729C2.07187 6.77229 1.79566 6.94729 1.53552 7.14729C1.99207 6.67529 2.57299 6.31904 3.20392 6.09104C3.51926 5.97354 3.85325 5.90479 4.19087 5.86904Z" fill="black"/>
<path d="M3.88148 6.33339C4.19629 6.30164 4.52277 6.30164 4.84355 6.36464C5.16225 6.42964 5.47267 6.55539 5.7367 6.74989C5.99736 6.94589 6.21398 7.20639 6.33239 7.50739C6.4506 7.80545 6.4891 8.12744 6.44433 8.44364C6.39519 8.75012 6.28019 9.04331 6.10671 9.30439C6.35986 8.75064 6.42152 8.10589 6.16086 7.58064C5.90771 7.05439 5.37446 6.70439 4.79535 6.59764C4.50696 6.53614 4.20484 6.53464 3.9022 6.55739C3.60008 6.57614 3.30159 6.63489 3.00646 6.70914C2.71186 6.78664 2.4245 6.89339 2.14777 7.02339C1.86589 7.14955 1.59681 7.30079 1.34402 7.47514C1.79383 7.04989 2.35402 6.73814 2.95179 6.53514C3.25262 6.43364 3.56457 6.36594 3.88148 6.33339ZM12.416 7.42064C12.8023 7.31866 13.2124 7.33934 13.5856 7.47964C13.9527 7.61246 14.2667 7.8539 14.4829 8.16939C14.2104 7.92847 13.883 7.75274 13.5271 7.65639C13.1819 7.56439 12.8187 7.55714 12.4805 7.65039C12.1408 7.73789 11.8317 7.92689 11.5817 8.17664C11.3272 8.43912 11.1405 8.75576 11.0365 9.10089C11.0532 8.71981 11.1942 8.35355 11.4394 8.05439C11.6874 7.74896 12.0293 7.52711 12.416 7.42064Z" fill="black"/>
<path d="M13.9434 9.90061C13.8763 9.90061 13.8219 9.84722 13.8219 9.78136C13.8219 9.7155 13.8763 9.66211 13.9434 9.66211C14.0106 9.66211 14.065 9.7155 14.065 9.78136C14.065 9.84722 14.0106 9.90061 13.9434 9.90061Z" fill="black"/>
<path d="M13.8372 10.1514C13.8602 10.1739 13.873 10.2043 13.873 10.2359C13.873 10.2674 13.8602 10.2978 13.8372 10.3204C13.7901 10.3671 13.7131 10.3671 13.6657 10.3204C13.6183 10.2736 13.618 10.1984 13.6657 10.1514C13.6768 10.1402 13.6902 10.1314 13.7049 10.1254C13.7196 10.1193 13.7355 10.1162 13.7515 10.1162C13.7675 10.1162 13.7833 10.1193 13.7981 10.1254C13.8128 10.1314 13.8261 10.1402 13.8372 10.1514Z" fill="black"/>
<path d="M13.2886 10.5427C13.2215 10.5427 13.1671 10.4893 13.1671 10.4234C13.1671 10.3576 13.2215 10.3042 13.2886 10.3042C13.3557 10.3042 13.4102 10.3576 13.4102 10.4234C13.4102 10.4893 13.3557 10.5427 13.2886 10.5427Z" fill="black"/>
<path d="M12.9112 10.1509C12.9589 10.1974 12.9589 10.2727 12.9112 10.3194C12.8635 10.3662 12.7868 10.3662 12.7397 10.3194C12.7165 10.2971 12.7035 10.2668 12.7035 10.2352C12.7035 10.2036 12.7165 10.1733 12.7397 10.1509C12.7509 10.1399 12.7642 10.1312 12.7789 10.1253C12.7937 10.1193 12.8095 10.1162 12.8254 10.1162C12.8414 10.1162 12.8572 10.1193 12.8719 10.1253C12.8867 10.1312 12.9 10.1399 12.9112 10.1509ZM13.8373 9.24243C13.8603 9.26478 13.8733 9.29503 13.8733 9.32656C13.8733 9.35809 13.8603 9.38834 13.8373 9.41068C13.7896 9.45743 13.7129 9.45743 13.6652 9.41068C13.6423 9.38824 13.6295 9.35803 13.6295 9.32656C13.6295 9.29509 13.6423 9.26488 13.6652 9.24243C13.6763 9.23124 13.6897 9.22234 13.7045 9.21625C13.7193 9.21017 13.7352 9.20703 13.7512 9.20703C13.7673 9.20703 13.7832 9.21017 13.798 9.21625C13.8128 9.22234 13.8261 9.23124 13.8373 9.24243Z" fill="black"/>
<path d="M13.2882 10.0195C13.1539 10.0195 13.0451 9.9128 13.0451 9.78122C13.0451 9.64964 13.1539 9.54297 13.2882 9.54297C13.4224 9.54297 13.5312 9.64964 13.5312 9.78122C13.5312 9.9128 13.4224 10.0195 13.2882 10.0195Z" fill="black"/>
</svg>
