<svg width="8" height="7" viewBox="0 0 8 7" fill="none" xmlns="http://www.w3.org/2000/svg">
<path d="M3.9998 5.86424L2.06084 6.93436C1.97519 6.9843 1.88564 7.0057 1.79219 6.99857C1.69875 6.99143 1.61699 6.9629 1.5469 6.91296C1.47682 6.86302 1.42231 6.80067 1.38338 6.7259C1.34444 6.65114 1.33665 6.56724 1.36002 6.47421L1.87396 4.45169L0.156927 3.09264C0.0790577 3.02843 0.0304669 2.95524 0.0111552 2.87305C-0.00815649 2.79087 -0.00239415 2.71068 0.0284423 2.63249C0.0592787 2.5543 0.106001 2.49009 0.168608 2.43987C0.231215 2.38964 0.316872 2.35754 0.425578 2.34356L2.69159 2.16164L3.56762 0.256828C3.60656 0.171219 3.66699 0.107012 3.7489 0.064207C3.83082 0.0214023 3.91446 0 3.9998 0C4.08515 0 4.16878 0.0214023 4.2507 0.064207C4.33262 0.107012 4.39304 0.171219 4.43198 0.256828L5.30801 2.16164L7.57402 2.34356C7.68304 2.35783 7.7687 2.38993 7.83099 2.43987C7.89329 2.48981 7.94001 2.55401 7.97116 2.63249C8.00231 2.71096 8.00822 2.79129 7.98891 2.87348C7.9696 2.95566 7.92086 3.02872 7.84267 3.09264L6.12565 4.45169L6.63959 6.47421C6.66295 6.56695 6.65516 6.65085 6.61623 6.7259C6.57729 6.80095 6.52278 6.86331 6.4527 6.91296C6.38262 6.96261 6.30085 6.99115 6.20741 6.99857C6.11397 7.00599 6.02441 6.98458 5.93876 6.93436L3.9998 5.86424Z" fill="white"/>
</svg>
