<svg width="16" height="16" viewBox="0 0 16 16" fill="none" xmlns="http://www.w3.org/2000/svg">
<g clip-path="url(#clip0_102_807)">
<path d="M6.00065 14.6663C6.36884 14.6663 6.66732 14.3679 6.66732 13.9997C6.66732 13.6315 6.36884 13.333 6.00065 13.333C5.63246 13.333 5.33398 13.6315 5.33398 13.9997C5.33398 14.3679 5.63246 14.6663 6.00065 14.6663Z" stroke="white" stroke-linecap="round" stroke-linejoin="round"/>
<path d="M13.3327 14.6663C13.7009 14.6663 13.9993 14.3679 13.9993 13.9997C13.9993 13.6315 13.7009 13.333 13.3327 13.333C12.9645 13.333 12.666 13.6315 12.666 13.9997C12.666 14.3679 12.9645 14.6663 13.3327 14.6663Z" stroke="white" stroke-linecap="round" stroke-linejoin="round"/>
<path d="M0.666016 0.666992H3.33268L5.11935 9.59366C5.18031 9.90059 5.34729 10.1763 5.59105 10.3725C5.8348 10.5687 6.13981 10.673 6.45268 10.667H12.9327C13.2455 10.673 13.5506 10.5687 13.7943 10.3725C14.0381 10.1763 14.2051 9.90059 14.266 9.59366L15.3327 4.00033H3.99935" stroke="white" stroke-linecap="round" stroke-linejoin="round"/>
</g>
<defs>
<clipPath id="clip0_102_807">
<rect width="16" height="16" fill="white"/>
</clipPath>
</defs>
</svg>
